<svg xmlns="http://www.w3.org/2000/svg" xmlns:xlink="http://www.w3.org/1999/xlink" width="1500" zoomAndPan="magnify" viewBox="0 0 1125 374.999991" height="500" preserveAspectRatio="xMidYMid meet" version="1.0"><defs><g/></defs><g fill="#00bf63" fill-opacity="1"><g transform="translate(26.531262, 298.49998)"><g><path d="M 10.453125 -236.21875 L 72.875 -236.21875 C 91.757812 -236.21875 105.234375 -230.125 113.296875 -217.9375 C 121.367188 -205.75 125.40625 -187.921875 125.40625 -164.453125 C 125.40625 -140.984375 121.828125 -123.289062 114.671875 -111.375 C 107.523438 -99.457031 94.691406 -93.5 76.171875 -93.5 L 56.921875 -93.5 L 56.921875 0 L 10.453125 0 Z M 59.671875 -136.125 C 65.359375 -136.125 69.53125 -137.175781 72.1875 -139.28125 C 74.84375 -141.394531 76.582031 -144.421875 77.40625 -148.359375 C 78.238281 -152.304688 78.65625 -157.945312 78.65625 -165.28125 C 78.65625 -175.175781 77.550781 -182.320312 75.34375 -186.71875 C 73.144531 -191.125 68.75 -193.328125 62.15625 -193.328125 L 56.921875 -193.328125 L 56.921875 -136.125 Z M 59.671875 -136.125 "/></g></g></g><g fill="#00bf63" fill-opacity="1"><g transform="translate(156.328668, 298.49998)"><g><path d="M 10.453125 0 L 10.453125 -236.21875 L 105.046875 -236.21875 L 105.046875 -190.578125 L 58.578125 -190.578125 L 58.578125 -144.65625 L 103.125 -144.65625 L 103.125 -100.09375 L 58.578125 -100.09375 L 58.578125 -45.921875 L 108.078125 -45.921875 L 108.078125 0 Z M 10.453125 0 "/></g></g></g><g fill="#00bf63" fill-opacity="1"><g transform="translate(269.626394, 298.49998)"><g><path d="M 10.453125 -236.21875 L 72.875 -236.21875 C 91.757812 -236.21875 105.234375 -230.125 113.296875 -217.9375 C 121.367188 -205.75 125.40625 -187.921875 125.40625 -164.453125 C 125.40625 -140.984375 121.828125 -123.289062 114.671875 -111.375 C 107.523438 -99.457031 94.691406 -93.5 76.171875 -93.5 L 56.921875 -93.5 L 56.921875 0 L 10.453125 0 Z M 59.671875 -136.125 C 65.359375 -136.125 69.53125 -137.175781 72.1875 -139.28125 C 74.84375 -141.394531 76.582031 -144.421875 77.40625 -148.359375 C 78.238281 -152.304688 78.65625 -157.945312 78.65625 -165.28125 C 78.65625 -175.175781 77.550781 -182.320312 75.34375 -186.71875 C 73.144531 -191.125 68.75 -193.328125 62.15625 -193.328125 L 56.921875 -193.328125 L 56.921875 -136.125 Z M 59.671875 -136.125 "/></g></g></g><g fill="#00bf63" fill-opacity="1"><g transform="translate(399.423785, 298.49998)"><g><path d="M 10.453125 0 L 10.453125 -236.21875 L 105.046875 -236.21875 L 105.046875 -190.578125 L 58.578125 -190.578125 L 58.578125 -144.65625 L 103.125 -144.65625 L 103.125 -100.09375 L 58.578125 -100.09375 L 58.578125 -45.921875 L 108.078125 -45.921875 L 108.078125 0 Z M 10.453125 0 "/></g></g></g><g fill="#00bf63" fill-opacity="1"><g transform="translate(512.721523, 298.49998)"><g><path d="M 66.546875 2.203125 C 45.097656 2.203125 29.609375 -3.113281 20.078125 -13.75 C 10.546875 -24.382812 5.78125 -41.523438 5.78125 -65.171875 L 5.78125 -88.28125 L 52.25 -88.28125 L 52.25 -58.84375 C 52.25 -47.113281 56.007812 -41.25 63.53125 -41.25 C 67.738281 -41.25 70.664062 -42.484375 72.3125 -44.953125 C 73.96875 -47.429688 74.796875 -51.601562 74.796875 -57.46875 C 74.796875 -65.175781 73.878906 -71.550781 72.046875 -76.59375 C 70.210938 -81.632812 67.875 -85.847656 65.03125 -89.234375 C 62.195312 -92.628906 57.113281 -97.898438 49.78125 -105.046875 L 29.421875 -125.40625 C 13.660156 -140.800781 5.78125 -157.847656 5.78125 -176.546875 C 5.78125 -196.710938 10.40625 -212.066406 19.65625 -222.609375 C 28.914062 -233.148438 42.4375 -238.421875 60.21875 -238.421875 C 81.488281 -238.421875 96.796875 -232.78125 106.140625 -221.5 C 115.492188 -210.226562 120.171875 -192.585938 120.171875 -168.578125 L 72.046875 -168.578125 L 71.78125 -184.796875 C 71.78125 -187.910156 70.90625 -190.382812 69.15625 -192.21875 C 67.414062 -194.050781 64.988281 -194.96875 61.875 -194.96875 C 58.207031 -194.96875 55.457031 -193.957031 53.625 -191.9375 C 51.789062 -189.925781 50.875 -187.179688 50.875 -183.703125 C 50.875 -176.003906 55.273438 -168.03125 64.078125 -159.78125 L 91.578125 -133.375 C 97.992188 -127.144531 103.304688 -121.234375 107.515625 -115.640625 C 111.734375 -110.046875 115.125 -103.441406 117.6875 -95.828125 C 120.257812 -88.222656 121.546875 -79.195312 121.546875 -68.75 C 121.546875 -45.46875 117.28125 -27.820312 108.75 -15.8125 C 100.226562 -3.800781 86.160156 2.203125 66.546875 2.203125 Z M 66.546875 2.203125 "/></g></g></g><g fill="#00bf63" fill-opacity="1"><g transform="translate(639.493992, 298.49998)"><g><path d="M 28.875 0 L 3.578125 -236.21875 L 49.78125 -236.21875 L 62.96875 -87.171875 L 76.171875 -236.21875 L 120.171875 -236.21875 L 132.828125 -87.171875 L 145.46875 -236.21875 L 192.21875 -236.21875 L 166.375 0 L 109.71875 0 L 97.90625 -113.84375 L 86.625 0 Z M 28.875 0 "/></g></g></g><g fill="#00bf63" fill-opacity="1"><g transform="translate(835.290029, 298.49998)"><g><path d="M 4.125 0 L 26.953125 -236.21875 L 106.96875 -236.21875 L 129.53125 0 L 84.703125 0 L 81.40625 -38.21875 L 52.796875 -38.21875 L 50.046875 0 Z M 56.375 -75.90625 L 77.828125 -75.90625 L 67.375 -196.078125 L 65.171875 -196.078125 Z M 56.375 -75.90625 "/></g></g></g><g fill="#00bf63" fill-opacity="1"><g transform="translate(968.662393, 298.49998)"><g><path d="M 10.453125 -236.21875 L 72.875 -236.21875 C 91.757812 -236.21875 105.234375 -230.125 113.296875 -217.9375 C 121.367188 -205.75 125.40625 -187.921875 125.40625 -164.453125 C 125.40625 -140.984375 121.828125 -123.289062 114.671875 -111.375 C 107.523438 -99.457031 94.691406 -93.5 76.171875 -93.5 L 56.921875 -93.5 L 56.921875 0 L 10.453125 0 Z M 59.671875 -136.125 C 65.359375 -136.125 69.53125 -137.175781 72.1875 -139.28125 C 74.84375 -141.394531 76.582031 -144.421875 77.40625 -148.359375 C 78.238281 -152.304688 78.65625 -157.945312 78.65625 -165.28125 C 78.65625 -175.175781 77.550781 -182.320312 75.34375 -186.71875 C 73.144531 -191.125 68.75 -193.328125 62.15625 -193.328125 L 56.921875 -193.328125 L 56.921875 -136.125 Z M 59.671875 -136.125 "/></g></g></g></svg>